# xmcd
#
# Track frame offsets:
#   150
#   13779
#   26181
#   36584
#   50246
#   63838
#   75417
#   90645
#   99225
#   111591
#   128044
#   140955
#   158132
#   169765
#   184291
#   199287
#   210962
#   222714
#   232960
#   247162
#   258973
#   271952
#   284651
#   295985
#   311390
#
# Disc length: 4303 seconds
#
# Revision: 0
# Processed by: cddbd v1.5.2PL0 Copyright (c) Steve Scherf et al.
# Submitted via: uFREEDB ActiveX Control 1.5
#
DISCID=8510cd19
DTITLE=MODÃO 2003 - MODÃO 2003
DYEAR=2003
DGENRE=Country
TTITLE0=A Nível Nacional - Breno Reis and Marco Viola
TTITLE1=Pagodão de Cabra Macho - Ouro Preto and Boiadeiro
TTITLE2=Nóis Capota Mais Num Breca - Zé Antônio and Divaney
TTITLE3=Paixão Goiana - Ronaldo Viola and João Carvalho
TTITLE4=Grito de Liberdade - Goiano and Paranaense
TTITLE5=Pagode - Brenno Reis and Marco Viola
TTITLE6=Estremecendo o Chão - Ouro Preto and Boiadeiro
TTITLE7=Terceira Perna - Zé Antônio and Divaney
TTITLE8=Flor de Goiás - Ronaldo Viola and João Carvalho
TTITLE9=O Doutor e o Caipira - Goiano and Paranaense
TTITLE10=Viola Pagodeira - Brenno Reis and Marco Viola
TTITLE11=Nóis é Jeca Mais é Joia - Ouro Preto and Boiadeiro
TTITLE12=Mineiro de Monte Belo - Zé Antônio and Divaney
TTITLE13=Batidão Lascado - Ronaldo Viola and João Carvalho
TTITLE14=A Viola e a Saudade - Goiano and Paranaense
TTITLE15=Sete Flechas -  Brenno Reis and Marco Viola
TTITLE16=A Dormideira - Ouro Preto and Boiadeiro
TTITLE17=Tô Sortinho - Zé Antônio and Divaney
TTITLE18=Rodeio Brasileiro - Ronaldo Viola and João Carvalho
TTITLE19=O Caipira e o Lavrador - Goiano and Paraense
TTITLE20=Bão de Bico - Brenno Reis and Marco Viola
TTITLE21=Rei do Pagode - Ouro Preto and Boiadeiro
TTITLE22=Na Barba do Leão - Zé Antônio and Divaney
TTITLE23=A Fia do Delegado - Brenno Reis and Marco Viola
TTITLE24=Moradia - Ouro Preto and Boiadeiro
EXTD=
EXTT0=
EXTT1=
EXTT2=
EXTT3=
EXTT4=
EXTT5=
EXTT6=
EXTT7=
EXTT8=
EXTT9=
EXTT10=
EXTT11=
EXTT12=
EXTT13=
EXTT14=
EXTT15=
EXTT16=
EXTT17=
EXTT18=
EXTT19=
EXTT20=
EXTT21=
EXTT22=
EXTT23=
EXTT24=
PLAYORDER=
